# xmcd CD database file
#
# Track frame offsets:
#	150
#	12109
#	25901
#	38613
#	50864
#	62796
#	74224
#	86992
#	99644
#	112977
#	126091
#	137144
#	150598
#	162073
#	176690
#	189513
#	203435
#	217371
#	230425
#	244872
#	258257
#	271443
#	283075
#	296342
#	310116
#	322371
#	333283
#
# Disc length: 4632 seconds
#
# Revision: 1
# Processed by: cddbd v1.4PL0 Copyright (c) Steve Scherf et al.
# Submitted via: CDex 1.50Beta7
#
DISCID=9b12161b
DTITLE=Various Artist - Rough Treatment - The J.O.B. Records Story CD 2
DYEAR=1951
DGENRE=Blues
TTITLE0=Robert Jr. Lockwood - Aw Aw Baby (Sweet Home Chicago)
TTITLE1=Sunnyland Slim - Leaving Your Town
TTITLE2=John Brim - Trouble In The Morning
TTITLE3=Alfred Wallace - You've Got To Stop This Mess
TTITLE4=Snooky Prior - Eighty Nine Ten
TTITLE5=Little Hudson - Things Going So Tough
TTITLE6=J.B. Lenoir - Play A Little While
TTITLE7=John Lee - Knockin' On Lula Mae's Door
TTITLE8=Floyd Jones - Big World
TTITLE9=Johnny Shines - Brutal Hearted Woman
TTITLE10=Grace Brim - Hospitality Blues
TTITLE11=Leroy Foster - Louella
TTITLE12=Eddie Boyd - Blue Coat Man
TTITLE13=Little Son Joe - A Little Too Late
TTITLE14=Moody Jones - Why Should I Worry?
TTITLE15=Little Brother Montgomery - Boogie
TTITLE16=Memphis Minnie - World Of Trouble
TTITLE17=John Brim - Drinking Woman
TTITLE18=Floyd Jones - On The Road Again
TTITLE19=Sunnyland Slim - Woman Trouble
TTITLE20=Johnny Shines - Cool Driver
TTITLE21=Little Hudson - I'm Looking For A Woman
TTITLE22=J.B. Lenoir - People Are Meddlin'
TTITLE23=Leroy Foster - Blues Is Killing Me
TTITLE24=Snooky Pryor - Raisin' Sand
TTITLE25=Robert Jr. Lockwood - Pearly B
TTITLE26=Ernest Cotton - Uh'm Beautiful
EXTD=YEAR: 1951
EXTT0=
EXTT1=
EXTT2=
EXTT3=
EXTT4=
EXTT5=
EXTT6=
EXTT7=
EXTT8=
EXTT9=
EXTT10=
EXTT11=
EXTT12=
EXTT13=
EXTT14=
EXTT15=
EXTT16=
EXTT17=
EXTT18=
EXTT19=
EXTT20=
EXTT21=
EXTT22=
EXTT23=
EXTT24=
EXTT25=
EXTT26=
PLAYORDER=
